<svg xmlns="http://www.w3.org/2000/svg" viewBox="0 0 124.51 67.32">
  <g>
    <g>
      <path fill="#b8445e" d="M35.03,53.34c-2.29,3.64-3.85,6.86-6.02,10.74-.45.81-1.41,3.12-2.36,3.22-1.86.19-2.57-3.36-3.01-5.05-1.22-4.71-1.97-8.03-3.12-13-.23-1-.62-2.13-.86-3.22-.21-.97-.28-2.66.86-2.69,1.17-.03,1.96,2.53,2.36,4.08,1.43,5.51,2.24,10.48,3.76,15.58,2.25-3.25,4.31-6.91,6.12-10.96.47-1.05,1.1-3.36,2.26-3.33,1.07.03,1.73,2.3,2.04,3.01,1.55,3.52,2.99,7.06,4.62,10.31,3.44-5.77,5.71-12.7,6.34-21.27.36-.41.78-1.08,1.61-.86,1.68.44.47,5.44.11,7.2-1.05,5.1-2.47,8.87-4.4,13.21-.68,1.51-1.77,5.34-3.22,5.48-2.36.22-3.34-3.96-4.08-5.69-1.03-2.41-2.12-4.5-3.01-6.77Z"/>
      <path fill="#b8445e" d="M60.92,41.85c.9,2.69-2.16,4.12-4.08,2.69-.4-2.11,2.22-4.16,4.08-2.69Z"/>
      <path fill="#b8445e" d="M98.51,59.36c.17,4.6,5.66,2.93,8.27,1.18,1.7-1.14,2.84-2.87,4.3-3.44.53,2.19-1.57,3.81-3.33,5.16-2.59,1.98-8.1,4.45-10.74.97-.66-.88-1.01-2.08-1.07-3.65-.99.28-1.91,1.17-3.11,1.72-2.34,1.06-6.19,1.72-8.27-.11-1.73-1.52-2.06-4.1-2.69-6.87-1.65.5-2.34,2.74-3.33,4.62-.95,1.79-2.01,3.89-3.22,4.94-3.96,3.42-4.21-4.46-3.87-8.16-.92,2.02-2.75,3.94-4.62,5.8-1.77,1.77-4.03,4.21-6.66,4.51-3.77.43-5.11-2.83-5.37-6.45-.28-3.89-.15-8.52,3.22-8.59.54,2.2-.54,4.69-.54,7.3,0,1.77.42,4.62,1.72,4.94,2.33.58,5.52-2.56,6.66-3.54,1.97-1.7,3.63-3.14,4.94-5.16.4-.05.38.34.64.43,0-1.55.32-3.12,1.5-3.22,3.03-.27.19,8.4,1.07,9.67,4.33-2.43,3.14-10.39,9.56-10.74.78.77.5,1.88.54,2.79.15,3.54,1.11,6.19,4.83,6.34,2.74.11,4.94-1.18,6.98-2.26.52-4.09,2.85-9.01,7.09-9.45,2.64-.28,4.19,1.87,3.12,4.4-1.29,3.03-5.39,5-7.63,6.87ZM101.09,51.2c-1.39,1.18-2.51,3.88-2.58,5.8,1.95-1.81,4.75-2.77,5.37-5.91-.73-1.21-2.16-.43-2.79.11Z"/>
    </g>
    <path fill="#1d1d1b" d="M31.09,23.04c-.32,3.6-3.05,13.62-15.45,13.62S0,26.64,0,19.31C0,8.05,4.77,0,16.21,0c5.34,0,14.11,2.49,14.94,13.35h-9.03c-.38-2.29-1.78-5.89-5.91-5.63-5.59,0-7.06,5.76-7.06,10.08,0,3.8.13,11.33,6.87,11.33,4.51,0,6.04-4.45,6.04-6.09h9.03Z"/>
    <path fill="#1d1d1b" d="M50.72,36.66c-9.09,0-17.29-5.76-17.29-18.33S41.63,0,50.72,0s17.29,5.76,17.29,18.33-8.2,18.33-17.29,18.33ZM50.72,7.72c-6.87,0-8.14,6.15-8.14,10.61s1.27,10.6,8.14,10.6,8.14-6.15,8.14-10.6-1.27-10.61-8.14-10.61Z"/>
    <path fill="#1d1d1b" d="M72.26.92h8.52v6.02h.13c1.84-3.54,3.88-6.94,9.28-6.94.57,0,1.14.07,1.72.13v9.3c-.76-.13-1.72-.13-2.54-.13-6.93,0-8.2,4.45-8.2,8.31v18.13h-8.9V.92Z"/>
    <path fill="#1d1d1b" d="M122.54,28.93c0,4.12.89,5.04,1.97,5.43v1.37h-9.6c-.51-1.64-.64-2.16-.83-4.12-2.03,2.16-4.9,5.04-10.93,5.04-5.09,0-10.3-2.95-10.3-10.15,0-6.81,4.2-10.28,9.85-11.13l8.01-1.24c1.4-.2,3.11-.79,3.11-2.75,0-3.86-3.56-4.06-5.85-4.06-4.45,0-5.21,2.81-5.47,4.84h-8.58c1.02-10.67,8.2-12.18,15.13-12.18,4.77,0,13.48,1.5,13.48,10.08v18.85ZM113.83,18.79c-.89.72-2.35,1.31-6.04,1.9-3.31.59-6.04,1.44-6.04,5.24,0,3.21,2.41,4.19,4.13,4.19,3.94,0,7.95-2.62,7.95-6.87v-4.45Z"/>
  </g>
</svg>
