<svg width="121" height="96" viewBox="0 0 121 96" fill="none" xmlns="http://www.w3.org/2000/svg">
  <path d="M108.082 4.59738L104.54 33.0874L118.799 33.3534L115.017 78.4921L72.4606 78.5187L53.2778 92.3812L54.7359 78.4524L17.5952 78.4524L16.2137 60.4995L6.87461 60.2095L3.54912 4.59552L108.082 4.59738Z" fill="white"/>
  <path d="M69.6335 49.922L57.4723 49.9318L57.4496 51.6563L69.6402 51.6057L69.7238 58.1097L57.3449 58.1063L57.318 59.952L69.7518 59.8988L69.7377 68.0443L47.4045 68.1192L47.4025 68.1153L47.3461 44.2392L38.0966 61.9037L38.1152 68.2465L27.2389 68.4002L27.1014 61.9761L17.5626 42.2749L29.0402 42.2404L33.0137 51.8084L37.0433 42.2006L69.7806 42.187L69.6335 49.922ZM94.7214 49.9255L80.0613 49.8906C79.613 49.8866 79.2465 50.2425 79.2366 50.6908C79.2287 51.1432 79.5885 51.517 80.0407 51.5253L89.1608 51.5646C89.1608 51.5646 96.2122 51.4307 96.0259 59.5227C95.8298 67.9919 88.2164 68.0247 88.1801 68.0248L71.4799 68.0183L71.5125 59.8777L87.5837 59.9592C88.0508 59.9618 88.4331 59.5854 88.4398 59.1161C88.4442 58.6447 88.0657 58.26 87.5966 58.2551L79.3487 58.1783C79.2894 58.183 71.173 58.8026 71.5215 50.2791C71.8701 41.7613 79.881 42.0372 79.9499 42.0398L94.8444 42.0283L94.7214 49.9255ZM107.627 67.9114L98.1217 67.925L98.7891 60.3266L107.106 60.3098L107.627 67.9114ZM107.109 58.6242L98.7932 58.6411L97.9519 41.9979L108.245 41.971L107.109 58.6242ZM43.0361 22.3278L26.4935 22.1048C26.1081 22.1014 25.7913 22.411 25.7901 22.7988C25.7892 23.1783 26.0914 23.489 26.4704 23.4964L35.3138 23.7149C35.3729 23.7139 42.3635 23.6152 42.178 31.6729C41.9815 40.1625 34.3322 40.176 34.3322 40.176L17.6319 40.1685L17.6656 32.028L32.8364 32.0599C33.1969 32.0603 33.4941 31.7722 33.5027 31.4098C33.5113 31.0393 33.2116 30.7317 32.8408 30.7309L25.4844 30.6997C25.4844 30.6997 17.3228 30.9842 17.6726 22.4293C18.0227 13.8749 26.1009 14.19 26.1009 14.19L43.1342 14.1903L43.0361 22.3278ZM63.8806 14.0168L75.7877 39.9442L64.7621 40.0517L63.3428 37.1135L53.4842 37.2066L52.2454 40.0822L41.0471 40.1152L52.8267 14.1506L63.8806 14.0148L63.8806 14.0168ZM98.1961 14.0393L88.075 34.045L88.0799 34.0431L88.0438 39.835L77.1893 39.8598L77.0827 34.1165L67.4754 13.9863L79.0721 14.0176L83.0456 23.5845L87.0751 13.9777L98.1961 14.0393ZM56.2679 29.5613L60.7261 29.4358L58.5178 23.7989L56.2679 29.5613Z" fill="#171717"/>
</svg>
