<svg width="16" height="16" viewBox="0 0 10 10" xmlns="http://www.w3.org/2000/svg">
  <rect x="2.05" y="0.05" width="0.9" height="0.9" rx="0.08" fill="#22c55e"/>
  <rect x="3.05" y="0.05" width="0.9" height="0.9" rx="0.08" fill="#22c55e"/>
  <rect x="6.05" y="0.05" width="0.9" height="0.9" rx="0.08" fill="#22c55e"/>
  <rect x="7.05" y="0.05" width="0.9" height="0.9" rx="0.08" fill="#22c55e"/>
  <rect x="1.05" y="1.05" width="0.9" height="0.9" rx="0.08" fill="#22c55e"/>
  <rect x="2.05" y="1.05" width="0.9" height="0.9" rx="0.08" fill="#22c55e"/>
  <rect x="3.05" y="1.05" width="0.9" height="0.9" rx="0.08" fill="#22c55e"/>
  <rect x="4.05" y="1.05" width="0.9" height="0.9" rx="0.08" fill="#22c55e"/>
  <rect x="5.05" y="1.05" width="0.9" height="0.9" rx="0.08" fill="#22c55e"/>
  <rect x="6.05" y="1.05" width="0.9" height="0.9" rx="0.08" fill="#22c55e"/>
  <rect x="7.05" y="1.05" width="0.9" height="0.9" rx="0.08" fill="#22c55e"/>
  <rect x="8.05" y="1.05" width="0.9" height="0.9" rx="0.08" fill="#22c55e"/>
  <rect x="0.05" y="2.05" width="0.9" height="0.9" rx="0.08" fill="#22c55e"/>
  <rect x="1.05" y="2.05" width="0.9" height="0.9" rx="0.08" fill="#22c55e"/>
  <rect x="2.05" y="2.05" width="0.9" height="0.9" rx="0.08" fill="#22c55e"/>
  <rect x="3.05" y="2.05" width="0.9" height="0.9" rx="0.08" fill="#22c55e"/>
  <rect x="4.05" y="2.05" width="0.9" height="0.9" rx="0.08" fill="#22c55e"/>
  <rect x="5.05" y="2.05" width="0.9" height="0.9" rx="0.08" fill="#22c55e"/>
  <rect x="6.05" y="2.05" width="0.9" height="0.9" rx="0.08" fill="#22c55e"/>
  <rect x="7.05" y="2.05" width="0.9" height="0.9" rx="0.08" fill="#22c55e"/>
  <rect x="8.05" y="2.05" width="0.9" height="0.9" rx="0.08" fill="#22c55e"/>
  <rect x="9.05" y="2.05" width="0.9" height="0.9" rx="0.08" fill="#22c55e"/>
  <rect x="0.05" y="3.05" width="0.9" height="0.9" rx="0.08" fill="#22c55e"/>
  <rect x="1.05" y="3.05" width="0.9" height="0.9" rx="0.08" fill="#22c55e"/>
  <rect x="2.05" y="3.05" width="0.9" height="0.9" rx="0.08" fill="#22c55e"/>
  <rect x="3.05" y="3.05" width="0.9" height="0.9" rx="0.08" fill="#22c55e"/>
  <rect x="4.05" y="3.05" width="0.9" height="0.9" rx="0.08" fill="#22c55e"/>
  <rect x="5.05" y="3.05" width="0.9" height="0.9" rx="0.08" fill="#22c55e"/>
  <rect x="6.05" y="3.05" width="0.9" height="0.9" rx="0.08" fill="#22c55e"/>
  <rect x="7.05" y="3.05" width="0.9" height="0.9" rx="0.08" fill="#22c55e"/>
  <rect x="8.05" y="3.05" width="0.9" height="0.9" rx="0.08" fill="#22c55e"/>
  <rect x="9.05" y="3.05" width="0.9" height="0.9" rx="0.08" fill="#22c55e"/>
  <rect x="0.05" y="4.05" width="0.9" height="0.9" rx="0.08" fill="#22c55e"/>
  <rect x="1.05" y="4.05" width="0.9" height="0.9" rx="0.08" fill="#22c55e"/>
  <rect x="2.05" y="4.05" width="0.9" height="0.9" rx="0.08" fill="#22c55e"/>
  <rect x="3.05" y="4.05" width="0.9" height="0.9" rx="0.08" fill="#22c55e"/>
  <rect x="4.05" y="4.05" width="0.9" height="0.9" rx="0.08" fill="#22c55e"/>
  <rect x="5.05" y="4.05" width="0.9" height="0.9" rx="0.08" fill="#22c55e"/>
  <rect x="6.05" y="4.05" width="0.9" height="0.9" rx="0.08" fill="#22c55e"/>
  <rect x="7.05" y="4.05" width="0.9" height="0.9" rx="0.08" fill="#22c55e"/>
  <rect x="8.05" y="4.05" width="0.9" height="0.9" rx="0.08" fill="#22c55e"/>
  <rect x="9.05" y="4.05" width="0.9" height="0.9" rx="0.08" fill="#22c55e"/>
  <rect x="1.05" y="5.05" width="0.9" height="0.9" rx="0.08" fill="#22c55e"/>
  <rect x="2.05" y="5.05" width="0.9" height="0.9" rx="0.08" fill="#22c55e"/>
  <rect x="3.05" y="5.05" width="0.9" height="0.9" rx="0.08" fill="#22c55e"/>
  <rect x="4.05" y="5.05" width="0.9" height="0.9" rx="0.08" fill="#22c55e"/>
  <rect x="5.05" y="5.05" width="0.9" height="0.9" rx="0.08" fill="#22c55e"/>
  <rect x="6.05" y="5.05" width="0.9" height="0.9" rx="0.08" fill="#22c55e"/>
  <rect x="7.05" y="5.05" width="0.9" height="0.9" rx="0.08" fill="#22c55e"/>
  <rect x="8.05" y="5.05" width="0.9" height="0.9" rx="0.08" fill="#22c55e"/>
  <rect x="2.05" y="6.05" width="0.9" height="0.9" rx="0.08" fill="#22c55e"/>
  <rect x="3.05" y="6.05" width="0.9" height="0.9" rx="0.08" fill="#22c55e"/>
  <rect x="4.05" y="6.05" width="0.9" height="0.9" rx="0.08" fill="#22c55e"/>
  <rect x="5.05" y="6.05" width="0.9" height="0.9" rx="0.08" fill="#22c55e"/>
  <rect x="6.05" y="6.05" width="0.9" height="0.9" rx="0.08" fill="#22c55e"/>
  <rect x="7.05" y="6.05" width="0.9" height="0.9" rx="0.08" fill="#22c55e"/>
  <rect x="3.05" y="7.05" width="0.9" height="0.9" rx="0.08" fill="#22c55e"/>
  <rect x="4.05" y="7.05" width="0.9" height="0.9" rx="0.08" fill="#22c55e"/>
  <rect x="5.05" y="7.05" width="0.9" height="0.9" rx="0.08" fill="#22c55e"/>
  <rect x="6.05" y="7.05" width="0.9" height="0.9" rx="0.08" fill="#22c55e"/>
  <rect x="4.05" y="8.05" width="0.9" height="0.9" rx="0.08" fill="#22c55e"/>
  <rect x="5.05" y="8.05" width="0.9" height="0.9" rx="0.08" fill="#22c55e"/>
</svg>
